<svg xmlns="http://www.w3.org/2000/svg" xmlns:xlink="http://www.w3.org/1999/xlink" width="120" zoomAndPan="magnify" viewBox="0 0 90 89.999999" height="120" preserveAspectRatio="xMidYMid meet" version="1.0"><defs><clipPath id="1e7253c1bb"><path d="M 2.25 0 L 87.75 0 C 88.347656 0 88.917969 0.238281 89.339844 0.660156 C 89.761719 1.082031 90 1.652344 90 2.25 L 90 87.75 C 90 88.347656 89.761719 88.917969 89.339844 89.339844 C 88.917969 89.761719 88.347656 90 87.75 90 L 2.25 90 C 1.007812 90 0 88.992188 0 87.75 L 0 2.25 C 0 1.007812 1.007812 0 2.25 0 Z M 2.25 0 " clip-rule="nonzero"/></clipPath><clipPath id="afef5bea0b"><path d="M 0 0 L 90 0 L 90 90 L 0 90 Z M 0 0 " clip-rule="nonzero"/></clipPath><clipPath id="6467e9f995"><path d="M 2.25 0 L 87.75 0 C 88.347656 0 88.917969 0.238281 89.339844 0.660156 C 89.761719 1.082031 90 1.652344 90 2.25 L 90 87.75 C 90 88.347656 89.761719 88.917969 89.339844 89.339844 C 88.917969 89.761719 88.347656 90 87.75 90 L 2.25 90 C 1.007812 90 0 88.992188 0 87.75 L 0 2.25 C 0 1.007812 1.007812 0 2.25 0 Z M 2.25 0 " clip-rule="nonzero"/></clipPath><clipPath id="e788e550f0"><rect x="0" width="90" y="0" height="90"/></clipPath><clipPath id="50e7ccc0fd"><path d="M 0.398438 1 L 4 1 L 4 62.839844 L 0.398438 62.839844 Z M 0.398438 1 " clip-rule="nonzero"/></clipPath><clipPath id="7ca7cd990f"><path d="M 15 0.921875 L 47 0.921875 L 47 62.839844 L 15 62.839844 Z M 15 0.921875 " clip-rule="nonzero"/></clipPath><clipPath id="18e80fb924"><rect x="0" width="64" y="0" height="63"/></clipPath></defs><rect x="-9" width="108" fill="#ffffff" y="-9" height="107.999999" fill-opacity="1"/><rect x="-9" width="108" fill="#ffffff" y="-9" height="107.999999" fill-opacity="1"/><g clip-path="url(#1e7253c1bb)"><g transform="matrix(1, 0, 0, 1, 0, -0.00000000000000949)"><g clip-path="url(#e788e550f0)"><g clip-path="url(#afef5bea0b)"><g clip-path="url(#6467e9f995)"><rect x="-19.8" width="129.6" fill="#7e23ce" height="129.599999" y="-19.8" fill-opacity="1"/></g></g></g></g></g><g transform="matrix(1, 0, 0, 1, 14, 13)"><g clip-path="url(#18e80fb924)"><path stroke-linecap="butt" transform="matrix(0.907843, 0, 0, 0.907843, 3.158954, 58.429456)" fill="none" stroke-linejoin="miter" d="M 0.00132423 1.501926 L 64.177302 1.501926 " stroke="#ffffff" stroke-width="3" stroke-opacity="1" stroke-miterlimit="4"/><g clip-path="url(#50e7ccc0fd)"><path stroke-linecap="butt" transform="matrix(0, 0.907843, -0.907843, 0, 3.298696, 2.850209)" fill="none" stroke-linejoin="miter" d="M 0.00149057 1.499374 L 64.177468 1.499374 " stroke="#ffffff" stroke-width="3" stroke-opacity="1" stroke-miterlimit="4"/></g><g clip-path="url(#7ca7cd990f)"><path stroke-linecap="butt" transform="matrix(0.000380905, 0.907843, -0.907843, 0.000380905, 32.358392, 2.850387)" fill="none" stroke-linejoin="miter" d="M 0.000665334 1.500588 L 55.334432 1.497987 " stroke="#ffffff" stroke-width="3" stroke-opacity="1" stroke-miterlimit="4"/></g><path stroke-linecap="butt" transform="matrix(0.00000000158449, 0.907843, -0.907843, 0.00000000158449, 17.277709, 27.317847)" fill="none" stroke-linejoin="miter" d="M -0.00158656 1.502073 L 28.388162 1.502073 " stroke="#ffffff" stroke-width="3" stroke-opacity="1" stroke-miterlimit="4"/><path stroke-linecap="butt" transform="matrix(0, 0.907843, -0.907843, 0, 49.577372, 16.040284)" fill="none" stroke-linejoin="miter" d="M -0.00134592 1.500841 L 40.810531 1.500841 " stroke="#ffffff" stroke-width="3" stroke-opacity="1" stroke-miterlimit="4"/></g></g></svg>