<svg xmlns="http://www.w3.org/2000/svg" xmlns:xlink="http://www.w3.org/1999/xlink" width="120" zoomAndPan="magnify" viewBox="0 0 90 89.999999" height="120" preserveAspectRatio="xMidYMid meet" version="1.0"><defs><clipPath id="fa708db97c"><path d="M 2 53 L 58.640625 53 L 58.640625 56 L 2 56 Z M 2 53 " clip-rule="nonzero"/></clipPath><clipPath id="376d509930"><path d="M 0.800781 0.320312 L 4 0.320312 L 4 57.441406 L 0.800781 57.441406 Z M 0.800781 0.320312 " clip-rule="nonzero"/></clipPath><clipPath id="e36668bc8d"><path d="M 14 0.320312 L 44 0.320312 L 44 57.441406 L 14 57.441406 Z M 14 0.320312 " clip-rule="nonzero"/></clipPath><clipPath id="0a46e19868"><rect x="0" width="59" y="0" height="58"/></clipPath></defs><rect x="-9" width="108" fill="#ffffff" y="-9" height="107.999999" fill-opacity="1"/><rect x="-9" width="108" fill="#7e23ce" y="-9" height="107.999999" fill-opacity="1"/><g transform="matrix(1, 0, 0, 1, 16, 16)"><g clip-path="url(#0a46e19868)"><g clip-path="url(#fa708db97c)"><path stroke-linecap="butt" transform="matrix(0.835557, 0, 0, 0.835557, 3.37577, 53.32504)" fill="none" stroke-linejoin="miter" d="M -0.000921232 1.4997 L 64.177828 1.4997 " stroke="#ffffff" stroke-width="3" stroke-opacity="1" stroke-miterlimit="4"/></g><g clip-path="url(#376d509930)"><path stroke-linecap="butt" transform="matrix(0, 0.835557, -0.835557, 0, 3.504389, 2.171236)" fill="none" stroke-linejoin="miter" d="M 0.000765017 1.50126 L 64.179514 1.50126 " stroke="#ffffff" stroke-width="3" stroke-opacity="1" stroke-miterlimit="4"/></g><g clip-path="url(#e36668bc8d)"><path stroke-linecap="butt" transform="matrix(0.000350576, 0.835557, -0.835557, 0.000350576, 30.250228, 2.171399)" fill="none" stroke-linejoin="miter" d="M -0.0000597737 1.500956 L 55.333544 1.500797 " stroke="#ffffff" stroke-width="3" stroke-opacity="1" stroke-miterlimit="4"/></g><path stroke-linecap="butt" transform="matrix(0.00000000145832, 0.835557, -0.835557, 0.00000000145832, 16.370336, 24.690657)" fill="none" stroke-linejoin="miter" d="M 0.000897216 1.499776 L 28.387652 1.499776 " stroke="#ffffff" stroke-width="3" stroke-opacity="1" stroke-miterlimit="4"/><path stroke-linecap="butt" transform="matrix(0, 0.835557, -0.835557, 0, 46.098166, 14.311064)" fill="none" stroke-linejoin="miter" d="M 0.001719 1.501293 L 40.810016 1.501293 " stroke="#ffffff" stroke-width="3" stroke-opacity="1" stroke-miterlimit="4"/></g></g></svg>